<?xml version="1.0" encoding="UTF-8"?>
<svg version="1.1" xmlns="http://www.w3.org/2000/svg" width="512" height="512">
<path d="M0 0 C0.75053241 -0.0072672 1.50106482 -0.01453441 2.27434063 -0.02202183 C4.79790273 -0.04031934 7.31995399 -0.02289562 9.84350586 -0.00571251 C11.66742736 -0.01147185 13.49134306 -0.0194117 15.31524658 -0.02934873 C20.33394965 -0.05027106 25.3521789 -0.0398824 30.37088394 -0.02441764 C35.78065493 -0.01313009 41.190343 -0.03055394 46.60009766 -0.04431725 C57.20043595 -0.06658193 67.8005975 -0.06173405 78.4009428 -0.04725404 C87.0139734 -0.03597451 95.62695437 -0.03442533 104.23999023 -0.03987312 C105.46457884 -0.04063929 106.68916744 -0.04140545 107.95086479 -0.04219484 C110.43838248 -0.04379342 112.92590016 -0.04541448 115.41341782 -0.04705779 C138.75372687 -0.06132476 162.09393783 -0.04490768 185.4342308 -0.01805596 C205.47305101 0.00428365 225.5117188 0.00040379 245.55053711 -0.02264977 C268.80577989 -0.049391 292.06093663 -0.05995138 315.31619263 -0.04458845 C317.79469807 -0.04299566 320.27320352 -0.0414238 322.75170898 -0.03987312 C323.97126722 -0.03910175 325.19082546 -0.03833037 326.44734001 -0.03753562 C335.05272355 -0.03321359 343.65805263 -0.040516 352.26342773 -0.05227089 C362.74667356 -0.06627579 373.22973213 -0.06253823 383.71295643 -0.03586717 C389.06446963 -0.02270199 394.41567032 -0.01762265 399.7671814 -0.03411293 C404.66244835 -0.04896949 409.557112 -0.04089537 414.45232391 -0.01422517 C416.22680818 -0.00862194 418.00134301 -0.01152169 419.77579498 -0.02360411 C422.18182856 -0.03873523 424.58577593 -0.02329591 426.99169922 0 C428.03353379 -0.01755875 428.03353379 -0.01755875 429.09641552 -0.03547221 C432.78933675 0.03636094 434.44714307 0.59244883 437.42570823 2.84025258 C439.69089086 5.89197081 440.12114276 7.14613166 440.122262 10.88166142 C440.13468404 11.92596835 440.14710608 12.97027528 440.15990454 14.04622787 C440.14806881 15.18707354 440.13623308 16.32791921 440.1240387 17.50333595 C440.13113308 18.72027329 440.13822747 19.93721062 440.14553684 21.19102484 C440.16009835 24.56631493 440.15221842 27.94020297 440.1348139 31.31539047 C440.12145065 34.95625382 440.13687326 38.59701049 440.14863586 42.23786354 C440.16702528 49.36942496 440.15849135 56.50071258 440.14054764 63.6322655 C440.12652694 69.42826295 440.12262769 75.22418604 440.12598991 81.02019882 C440.12646736 81.84484668 440.1269448 82.66949455 440.12743671 83.51913174 C440.12846303 85.1943557 440.12951839 86.86957964 440.13060247 88.54480357 C440.1391723 103.36197354 440.12248599 118.17901127 440.09277344 132.99614906 C440.06394057 147.37478631 440.05684964 161.75323302 440.07226562 176.13189125 C440.08902682 191.78669214 440.09306242 207.44140253 440.07555526 223.09620577 C440.07371087 224.76560278 440.07187614 226.43499979 440.07005119 228.10439682 C440.0691391 228.92578247 440.06822701 229.74716812 440.06728728 230.59344424 C440.06168098 236.38206723 440.06499 242.17064606 440.07159615 247.95926666 C440.07932792 255.01437331 440.07258264 262.06929237 440.04742111 269.12436121 C440.03492168 272.72413158 440.02878462 276.32360988 440.03996277 279.92339134 C440.05184979 283.82513863 440.03275335 287.72638167 440.01051331 291.62809181 C440.01875407 292.76670676 440.02699484 293.9053217 440.03548533 295.07844013 C439.95537087 302.67034506 438.9066641 306.21839122 433.49584961 311.6292057 C430.54794884 311.89091873 430.54794884 311.89091873 426.68759155 311.9076786 C425.62534644 311.91636721 425.62534644 311.91636721 424.54164183 311.92523134 C422.1570289 311.94230326 419.77260866 311.94511395 417.38793945 311.94805336 C415.68322776 311.95734659 413.97852063 311.96751435 412.27381897 311.97849464 C407.6356653 312.00587699 402.99754214 312.02096835 398.35932875 312.03392267 C393.5159348 312.04951731 388.67260349 312.07631913 383.82925415 312.10195351 C374.65306712 312.14880643 365.47686838 312.18551894 356.30062258 312.21862638 C345.85575444 312.25680184 335.4109491 312.30622392 324.96613383 312.35661054 C303.47608543 312.46002723 281.98599729 312.54925587 260.49584961 312.6292057 C261.04112305 314.50624184 261.04112305 314.50624184 261.59741211 316.42119789 C262.94457206 321.06386254 264.28473965 325.70852124 265.62280273 330.35381508 C266.20292651 332.36413213 266.7849457 334.37390322 267.36889648 336.38311195 C268.20787357 339.27101946 269.04001699 342.1608211 269.87084961 345.0510807 C270.13333496 345.94913429 270.39582031 346.84718788 270.66625977 347.77245522 C270.90650879 348.61302467 271.14675781 349.45359413 271.39428711 350.31963539 C271.60746582 351.05687843 271.82064453 351.79412148 272.0402832 352.55370522 C272.49584961 354.6292057 272.49584961 354.6292057 272.49584961 358.6292057 C274.25928711 358.5982682 274.25928711 358.5982682 276.05834961 358.5667057 C279.96998428 358.55973309 283.64082905 358.98670228 287.49584961 359.6292057 C287.82584961 360.6192057 288.15584961 361.6092057 288.49584961 362.6292057 C289.39827393 362.65426186 290.30069824 362.67931801 291.23046875 362.70513344 C294.60573795 362.80075197 297.98086355 362.89995397 301.35595703 363.00152016 C302.81164491 363.04460503 304.26737478 363.08629645 305.72314453 363.12652016 C307.82589322 363.18486981 309.92843567 363.24837086 312.03100586 363.31279945 C313.29307861 363.34945717 314.55515137 363.38611488 315.85546875 363.42388344 C319.47057589 363.62778023 322.92334852 364.06364356 326.49584961 364.6292057 C326.49584961 365.2892057 326.49584961 365.9492057 326.49584961 366.6292057 C305.1956912 370.04562816 282.91843133 368.77968694 261.40098572 368.76353121 C256.88215073 368.76095619 252.36331752 368.76335918 247.84448242 368.76491737 C240.26342396 368.76672433 232.68237532 368.76437181 225.10131836 368.7595768 C216.40179787 368.75413705 207.70230084 368.75590076 199.00278091 368.7614032 C191.46316455 368.76597671 183.92355514 368.76656436 176.38393784 368.76396453 C171.91167569 368.76242485 167.43942448 368.76214316 162.96716309 368.76550102 C114.0120027 368.79711864 114.0120027 368.79711864 100.49584961 366.6292057 C100.49584961 365.9692057 100.49584961 365.3092057 100.49584961 364.6292057 C105.3425969 363.86191782 110.04573069 363.45555771 114.96069336 363.31279945 C115.63886612 363.29201836 116.31703888 363.27123726 117.01576233 363.24982643 C119.15486792 363.18511262 121.29408257 363.12581481 123.43334961 363.0667057 C124.89494885 363.02344587 126.35653758 362.97982937 127.81811523 362.93584633 C131.37724801 362.82951319 134.93649958 362.7280324 138.49584961 362.6292057 C138.82584961 361.6392057 139.15584961 360.6492057 139.49584961 359.6292057 C144.57671757 358.78239438 149.34413338 358.53882472 154.49584961 358.6292057 C154.61444336 357.49080238 154.73303711 356.35239906 154.85522461 355.17949867 C155.42987309 350.6042871 156.51967503 346.26312232 157.74584961 341.8245182 C158.07311035 340.6167321 158.07311035 340.6167321 158.40698242 339.38454628 C158.86503765 337.69815028 159.32568369 336.01245601 159.78881836 334.32744789 C160.49917262 331.7421116 161.20128186 329.15464163 161.90209961 326.5667057 C162.34954093 324.92334704 162.79744113 323.28011323 163.24584961 321.6370182 C163.45628906 320.86310738 163.66672852 320.08919655 163.88354492 319.29183388 C165.37910993 313.86268506 165.37910993 313.86268506 166.49584961 311.6292057 C165.60370915 311.63381467 164.7115687 311.63842363 163.79239368 311.64317226 C142.09317419 311.75355307 120.39400302 311.83631442 98.69456196 311.88826656 C88.20089453 311.9140575 77.7074144 311.94922509 67.21386719 312.00640297 C58.06858563 312.05621062 48.9234397 312.08849025 39.77802628 312.09964818 C34.93471024 312.1061714 30.09178224 312.1215213 25.24859047 312.15785599 C20.69066205 312.19177378 16.13328182 312.20226722 11.57523918 312.19474411 C9.90186205 312.19612055 8.22846674 312.20607839 6.55519867 312.22523308 C4.27040327 312.25010697 1.98767822 312.24413385 -0.29716492 312.23047829 C-1.57569179 312.23508725 -2.85421865 312.23969622 -4.17148876 312.24444485 C-7.50415039 311.6292057 -7.50415039 311.6292057 -10.41490459 309.8412981 C-13.61040575 304.92840323 -13.19462973 300.37906409 -13.1390686 294.63445473 C-13.14686856 293.40456117 -13.15466851 292.17466762 -13.16270483 290.90750456 C-13.17920422 287.4960944 -13.17325963 284.08605964 -13.15777373 280.67473292 C-13.14646826 276.99502426 -13.16391888 273.31543644 -13.17767334 269.63575172 C-13.19991902 262.42833568 -13.19509874 255.22117982 -13.18061014 248.01375353 C-13.16932308 242.1567233 -13.16778467 236.29976603 -13.17322922 230.44272804 C-13.17399538 229.60946537 -13.17476155 228.7762027 -13.17555093 227.91768965 C-13.17714954 226.22498896 -13.17877061 224.53228828 -13.18041389 222.83958763 C-13.19467528 206.96311305 -13.17827258 191.08678277 -13.15141205 175.21033186 C-13.1290729 161.58442196 -13.13295292 147.95872504 -13.15600586 134.33281898 C-13.18275701 118.51358231 -13.19330195 102.69447214 -13.17794454 86.87521601 C-13.17635178 85.18870515 -13.17477992 83.50219427 -13.17322922 81.81568336 C-13.17245784 80.98586467 -13.17168646 80.15604598 -13.17089171 79.30108127 C-13.16657264 73.45035747 -13.17386569 67.59971384 -13.18562698 61.74900246 C-13.19964294 54.61991249 -13.1958713 47.49109783 -13.16922326 40.36203945 C-13.15607261 36.72385243 -13.1509533 33.08612456 -13.16746902 29.44794083 C-13.1850916 25.50635251 -13.16406588 21.56551782 -13.1390686 17.62395668 C-13.15022221 16.47075605 -13.16137582 15.31755542 -13.17286742 14.12940931 C-13.15982868 13.0740355 -13.14678994 12.01866168 -13.13335609 10.93130684 C-13.13213845 9.56667045 -13.13213845 9.56667045 -13.13089621 8.17446566 C-11.43003483 1.267145 -6.38230722 -0.10756536 0 0 Z " fill="#333233" transform="translate(42.504150390625,71.37079429626465)"/>
<path d="M0 0 C149.16 0 298.32 0 452 0 C452 33 452 33 448 39 C445.14279228 41.85720772 443.19684746 41.2610846 439.19174194 41.2784729 C438.12949683 41.2871615 438.12949683 41.2871615 437.04579222 41.29602563 C434.66117929 41.31309756 432.27675905 41.31590825 429.89208984 41.31884766 C428.18737815 41.32814089 426.48267102 41.33830865 424.77796936 41.34928894 C420.13981569 41.37667129 415.50169253 41.39176265 410.86347914 41.40471697 C406.02008519 41.42031161 401.17675388 41.44711343 396.33340454 41.4727478 C387.15721751 41.51960073 377.98101877 41.55631324 368.80477297 41.58942068 C358.35990483 41.62759614 347.91509949 41.67701822 337.47028422 41.72740483 C315.98023582 41.83082153 294.49014768 41.92005017 273 42 C273.54527344 43.87703613 273.54527344 43.87703613 274.1015625 45.79199219 C275.44872245 50.43465684 276.78889004 55.07931554 278.12695312 59.72460938 C278.7070769 61.73492643 279.28909609 63.74469752 279.87304688 65.75390625 C280.71202396 68.64181376 281.54416738 71.53161539 282.375 74.421875 C282.63748535 75.31992859 282.8999707 76.21798218 283.17041016 77.14324951 C283.41065918 77.98381897 283.6509082 78.82438843 283.8984375 79.69042969 C284.11161621 80.42767273 284.32479492 81.16491577 284.54443359 81.92449951 C285 84 285 84 285 88 C286.175625 87.979375 287.35125 87.95875 288.5625 87.9375 C292.47413467 87.93052739 296.14497944 88.35749657 300 89 C300.33 89.99 300.66 90.98 301 92 C302.35363647 92.03758423 302.35363647 92.03758423 303.73461914 92.07592773 C307.10988834 92.17154627 310.48501394 92.27074827 313.86010742 92.37231445 C315.3157953 92.41539933 316.77152517 92.45709075 318.22729492 92.49731445 C320.33004361 92.55566411 322.43258606 92.61916516 324.53515625 92.68359375 C325.797229 92.72025146 327.05930176 92.75690918 328.35961914 92.79467773 C331.97472628 92.99857453 335.42749891 93.43443786 339 94 C339 94.66 339 95.32 339 96 C317.69984159 99.41642245 295.42258172 98.15048123 273.90513611 98.1343255 C269.38630112 98.13175049 264.86746791 98.13415348 260.34863281 98.13571167 C252.76757435 98.13751863 245.18652571 98.13516611 237.60546875 98.13037109 C228.90594826 98.12493135 220.20645123 98.12669506 211.5069313 98.1321975 C203.96731494 98.136771 196.42770553 98.13735866 188.88808823 98.13475883 C184.41582608 98.13321915 179.94357487 98.13293746 175.47131348 98.13629532 C126.51615309 98.16791293 126.51615309 98.16791293 113 96 C113 95.34 113 94.68 113 94 C117.84674729 93.23271212 122.54988109 92.826352 127.46484375 92.68359375 C128.14301651 92.66281265 128.82118927 92.64203156 129.51991272 92.62062073 C131.65901831 92.55590691 133.79823296 92.4966091 135.9375 92.4375 C137.39909924 92.39424016 138.86068797 92.35062366 140.32226562 92.30664062 C143.8813984 92.20030749 147.44064997 92.0988267 151 92 C151.33 91.01 151.66 90.02 152 89 C157.08086796 88.15318867 161.84828377 87.90961901 167 88 C167.17789063 86.29239502 167.17789063 86.29239502 167.359375 84.55029297 C167.93402348 79.9750814 169.02382542 75.63391662 170.25 71.1953125 C170.57726074 69.9875264 170.57726074 69.9875264 170.91113281 68.75534058 C171.36918804 67.06894457 171.82983408 65.3832503 172.29296875 63.69824219 C173.00332301 61.1129059 173.70543225 58.52543593 174.40625 55.9375 C174.85369132 54.29414134 175.30159152 52.65090753 175.75 51.0078125 C175.96043945 50.23390167 176.17087891 49.45999084 176.38769531 48.66262817 C177.88326032 43.23347936 177.88326032 43.23347936 179 41 C178.10785954 41.00460896 177.21571909 41.00921793 176.29654408 41.01396656 C154.59732458 41.12434737 132.89815341 41.20710871 111.19871235 41.25906086 C100.70504492 41.28485179 90.21156479 41.32001939 79.71801758 41.37719727 C70.57273602 41.42700491 61.42759009 41.45928454 52.28217667 41.47044247 C47.43886063 41.4769657 42.59593263 41.4923156 37.75274086 41.52865028 C33.19481244 41.56256807 28.63743221 41.57306152 24.07938957 41.56553841 C22.40601244 41.56691485 20.73261713 41.57687269 19.05934906 41.59602737 C16.77455366 41.62090127 14.49182861 41.61492814 12.20698547 41.60127258 C10.9284586 41.60588155 9.64993174 41.61049051 8.33266163 41.61523914 C5 41 5 41 0 36 C0 24.12 0 12.24 0 0 Z " fill="#E7EAEF" transform="translate(30,342)"/>
<path d="M0 0 C2.97476993 0.9072966 5.33545279 2.14966095 8.01513672 3.72949219 C9.05379883 4.33615723 10.09246094 4.94282227 11.16259766 5.56787109 C12.82597168 6.55279541 12.82597168 6.55279541 14.52294922 7.55761719 C16.28190872 8.58848634 18.04238258 9.61673458 19.80297852 10.64480591 C21.00086666 11.34443842 22.19829222 12.04486354 23.39526367 12.74606323 C29.83480359 16.51480243 36.33830153 20.16838117 42.85449219 23.80273438 C44.6296005 24.79915407 46.3767476 25.84625331 48.10058594 26.92895508 C51.01836392 28.64048244 53.97386699 29.55977251 57.19921875 30.55932617 C63.9725966 33.02693287 69.54707766 35.67780852 73.64794922 41.80761719 C77.84738272 54.38613545 75.79720223 69.56196276 75.15856934 82.56658936 C74.93206402 87.66642477 74.8327437 92.76863835 74.72216797 97.87207031 C74.4873322 107.85688726 74.11277365 117.83104383 73.64794922 127.80761719 C54.83544922 138.55761719 54.83544922 138.55761719 36.02294922 149.30761719 C35.3891333 149.67274414 34.75531738 150.03787109 34.10229492 150.4140625 C29.87569403 152.80761719 29.87569403 152.80761719 27.64794922 152.80761719 C27.64794922 124.75761719 27.64794922 96.70761719 27.64794922 67.80761719 C25.99794922 67.14761719 24.34794922 66.48761719 22.64794922 65.80761719 C20.90785461 64.81729344 19.18847828 63.78996828 17.48779297 62.73339844 C16.529375 62.14880859 15.57095703 61.56421875 14.58349609 60.96191406 C12.57672417 59.72908936 10.57413097 58.48943786 8.57568359 57.24316406 C7.61855469 56.66244141 6.66142578 56.08171875 5.67529297 55.48339844 C4.80638428 54.94626221 3.93747559 54.40912598 3.04223633 53.85571289 C0.78164265 52.64600815 0.78164265 52.64600815 -1.31811523 52.94287109 C-3.99692462 54.08179113 -6.42351056 55.47306092 -8.92236328 56.96777344 C-9.98326172 57.59619141 -11.04416016 58.22460938 -12.13720703 58.87207031 C-13.23935547 59.53142578 -14.34150391 60.19078125 -15.47705078 60.87011719 C-17.66480917 62.17743622 -19.85480126 63.48102688 -22.04736328 64.78027344 C-23.01689941 65.36043213 -23.98643555 65.94059082 -24.98535156 66.53833008 C-27.35205078 67.80761719 -27.35205078 67.80761719 -29.35205078 67.80761719 C-29.35205078 95.85761719 -29.35205078 123.90761719 -29.35205078 152.80761719 C-33.24496474 151.2504516 -36.64642932 149.63313451 -40.28955078 147.61230469 C-41.43294922 146.97808594 -42.57634766 146.34386719 -43.75439453 145.69042969 C-44.64360596 145.19397949 -44.64360596 145.19397949 -45.55078125 144.6875 C-47.31676797 143.70230058 -49.08610964 142.72336011 -50.85595703 141.74511719 C-52.02153298 141.09705969 -53.18690342 140.44863241 -54.35205078 139.79980469 C-55.89892578 138.93911377 -55.89892578 138.93911377 -57.47705078 138.06103516 C-58.04019989 137.71620087 -58.603349 137.37136658 -59.18356323 137.01608276 C-61.48468618 135.6792239 -61.48468618 135.6792239 -64.61843872 134.45291138 C-73.32444936 130.30819223 -73.32444936 130.30819223 -75.12014008 125.93854141 C-76.43414782 120.22882317 -76.27573683 114.39137903 -76.21923828 108.56542969 C-76.23817996 106.67264386 -76.26037952 104.7798881 -76.28567505 102.88717651 C-76.32280901 98.92690267 -76.31114791 94.97042053 -76.26660156 91.01025391 C-76.21494498 85.95319645 -76.29897546 80.90890862 -76.42184258 75.8534565 C-76.49917375 71.94566084 -76.49653733 68.04089095 -76.4711647 64.13253403 C-76.46989146 62.27060072 -76.49465431 60.40844814 -76.54681015 58.54724503 C-76.82856482 46.79592172 -76.82856482 46.79592172 -74.35205078 41.80761719 C-70.21541843 37.48385606 -64.8588029 35.06192558 -59.43091106 32.73189259 C-56.44234197 31.40315447 -53.71817154 29.76552886 -50.91845703 28.07714844 C-48.91756655 26.92409014 -46.91626059 25.77175255 -44.91455078 24.62011719 C-43.29504517 23.68679565 -43.29504517 23.68679565 -41.64282227 22.73461914 C-36.99340942 20.05524532 -32.34289941 17.37778079 -27.69189453 14.70117188 C-24.67662677 12.96589277 -21.66188671 11.22969979 -18.64743042 9.49301147 C-16.94534604 8.51285092 -15.24257665 7.53388023 -13.53979492 6.55493164 C-12.50975342 5.96156006 -11.47971191 5.36818848 -10.41845703 4.75683594 C-9.51039307 4.23436279 -8.6023291 3.71188965 -7.66674805 3.17358398 C-2.01031859 -0.16443129 -2.01031859 -0.16443129 0 0 Z " fill="#5B108A" transform="translate(261.35205078125,107.1923828125)"/>
<path d="M0 0 C0.85307739 0.00719055 1.70615479 0.0143811 2.58508301 0.02178955 C3.48270355 0.0214975 4.3803241 0.02120544 5.30514526 0.02090454 C8.28120488 0.0223013 11.25701618 0.03787877 14.23303223 0.05352783 C16.29283512 0.05725673 18.35263977 0.06010428 20.41244507 0.06210327 C25.84093093 0.06974943 31.26931023 0.08940634 36.69775391 0.11151123 C42.23423826 0.13194853 47.77073979 0.14110045 53.30725098 0.15118408 C64.17578745 0.17265131 75.04424474 0.20679908 85.91271973 0.24884033 C87.79686988 4.57658995 89.43442748 8.68804318 90.63146973 13.26837158 C90.92408691 14.37374268 91.2167041 15.47911377 91.51818848 16.61798096 C91.81338379 17.75428955 92.1085791 18.89059814 92.41271973 20.06134033 C93.00506947 22.31821873 93.59880065 24.57473504 94.19396973 26.83087158 C94.47885254 27.91448975 94.76373535 28.99810791 95.05725098 30.11456299 C96.06861522 33.82001222 97.1968765 37.4802738 98.3795166 41.13433838 C98.91271973 43.24884033 98.91271973 43.24884033 98.91271973 47.24884033 C100.08834473 47.22821533 101.26396973 47.20759033 102.47521973 47.18634033 C106.3868544 47.17936772 110.05769917 47.60633691 113.91271973 48.24884033 C114.24271973 49.23884033 114.57271973 50.22884033 114.91271973 51.24884033 C116.2663562 51.28642456 116.2663562 51.28642456 117.64733887 51.32476807 C121.02260807 51.4203866 124.39773367 51.5195886 127.77282715 51.62115479 C129.22851503 51.66423966 130.6842449 51.70593108 132.14001465 51.74615479 C134.24276334 51.80450444 136.34530578 51.86800549 138.44787598 51.93243408 C139.70994873 51.9690918 140.97202148 52.00574951 142.27233887 52.04351807 C145.88744601 52.24741486 149.34021864 52.68327819 152.91271973 53.24884033 C152.91271973 53.90884033 152.91271973 54.56884033 152.91271973 55.24884033 C131.61256132 58.66526279 109.33530145 57.39932157 87.81785583 57.38316584 C83.29902084 57.38059082 78.78018763 57.38299381 74.26135254 57.384552 C66.68029408 57.38635896 59.09924544 57.38400644 51.51818848 57.37921143 C42.81866799 57.37377168 34.11917095 57.37553539 25.41965103 57.38103783 C17.88003467 57.38561133 10.34042526 57.38619899 2.80080795 57.38359916 C-1.67145419 57.38205948 -6.1437054 57.38177779 -10.6159668 57.38513565 C-59.57112719 57.41675327 -59.57112719 57.41675327 -73.08728027 55.24884033 C-73.08728027 54.58884033 -73.08728027 53.92884033 -73.08728027 53.24884033 C-68.24053299 52.48155245 -63.53739919 52.07519233 -58.62243652 51.93243408 C-57.94426376 51.91165298 -57.266091 51.89087189 -56.56736755 51.86946106 C-54.42826196 51.80474725 -52.28904731 51.74544944 -50.14978027 51.68634033 C-48.68818103 51.64308049 -47.2265923 51.599464 -45.76501465 51.55548096 C-42.20588188 51.44914782 -38.6466303 51.34766703 -35.08728027 51.24884033 C-34.75728027 50.25884033 -34.42728027 49.26884033 -34.08728027 48.24884033 C-29.00641231 47.402029 -24.2389965 47.15845935 -19.08728027 47.24884033 C-18.96796143 46.11043701 -18.84864258 44.97203369 -18.72570801 43.7991333 C-18.15172333 39.22970606 -17.08019766 34.88226209 -15.87243652 30.44415283 C-15.54873329 29.23636673 -15.54873329 29.23636673 -15.2184906 28.00418091 C-14.76477808 26.31775183 -14.3083261 24.63205757 -13.84924316 22.94708252 C-13.14670475 20.36252586 -12.45736688 17.77468186 -11.7689209 15.18634033 C-11.32504766 13.54289808 -10.88041338 11.89966113 -10.43493652 10.25665283 C-10.22965836 9.482742 -10.02438019 8.70883118 -9.81288147 7.91146851 C-7.9921867 1.29950848 -6.94492937 0.02457856 0 0 Z " fill="#E2E5EA" transform="translate(216.0872802734375,382.75115966796875)"/>
<path d="M0 0 C0 28.71 0 57.42 0 87 C-20 98 -20 98 -25 97 C-31.45728876 94.77640261 -39.79976305 91.36848205 -43.01295471 84.98881912 C-44.64315964 79.2328012 -44.43455085 73.31006197 -44.328125 67.37890625 C-44.34468726 65.46894299 -44.3659903 63.55901556 -44.39178467 61.64915466 C-44.42576077 57.65691239 -44.39774783 53.67114307 -44.32617188 49.67944336 C-44.24046754 44.58502297 -44.31857132 39.50798779 -44.43894196 34.41483498 C-45.04062175 4.7483107 -45.04062175 4.7483107 -40.09936523 -2.96807861 C-26.24736169 -16.38387056 -15.67298509 -8.70721394 0 0 Z " fill="#9E20ED" transform="translate(282,179)"/>
<path d="M0 0 C0 0.66 0 1.32 0 2 C49.5 2 99 2 150 2 C150 1.34 150 0.68 150 0 C154.28686396 0.1190264 158.57353456 0.24331925 162.86010742 0.37231445 C164.3157953 0.41539933 165.77152517 0.45709075 167.22729492 0.49731445 C169.33004361 0.55566411 171.43258606 0.61916516 173.53515625 0.68359375 C175.42826538 0.73858032 175.42826538 0.73858032 177.35961914 0.79467773 C180.97472628 0.99857453 184.42749891 1.43443786 188 2 C188 2.66 188 3.32 188 4 C166.69984159 7.41642245 144.42258172 6.15048123 122.90513611 6.1343255 C118.38630112 6.13175049 113.86746791 6.13415348 109.34863281 6.13571167 C101.76757435 6.13751863 94.18652571 6.13516611 86.60546875 6.13037109 C77.90594826 6.12493135 69.20645123 6.12669506 60.5069313 6.1321975 C52.96731494 6.136771 45.42770553 6.13735866 37.88808823 6.13475883 C33.41582608 6.13321915 28.94357487 6.13293746 24.47131348 6.13629532 C-24.48384691 6.16791293 -24.48384691 6.16791293 -38 4 C-38 3.34 -38 2.68 -38 2 C-31.86529539 0.97611522 -25.77231065 0.68110029 -19.5625 0.4375 C-18.56412109 0.39431641 -17.56574219 0.35113281 -16.53710938 0.30664062 C-11.01941087 0.0780969 -5.52225447 -0.04607364 0 0 Z " fill="#000000" transform="translate(181,434)"/>
<path d="M0 0 C2.69990662 1.79993774 4.5418865 3.083773 6 6 C6.43023798 9.87214182 6.31669086 11.52496371 4.125 14.8125 C1.61855093 17.39266816 0.74538327 17.91717964 -2.8125 18.3125 C-6.7307645 17.92835642 -8.21293267 16.70743683 -11 14 C-12.42662219 11.14675563 -12.31033868 9.16545451 -12 6 C-8.54235344 0.81353016 -6.24330406 -0.61208863 0 0 Z " fill="#383838" transform="translate(259,353)"/>
</svg>
